<svg xmlns="http://www.w3.org/2000/svg" width="20" height="20" viewBox="0 0 20 20">
    <path data-name="Rectangle 2217" style="fill:none" d="M0 0h20v20H0z"/>
    <path data-name="search" d="m19.185 16.964-3.785-3.82a.907.907 0 0 0-.646-.268h-.619A7.986 7.986 0 0 0 7.9 0a7.971 7.971 0 0 0 0 15.941 7.821 7.821 0 0 0 4.863-1.686v.625a.923.923 0 0 0 .266.651l3.788 3.82a.9.9 0 0 0 1.288 0l1.075-1.084a.93.93 0 0 0 .005-1.303zM7.9 12.875a4.905 4.905 0 1 1 4.863-4.9 4.881 4.881 0 0 1-4.863 4.9z" transform="translate(.275 .189)" style="fill:#202124"/>
</svg>
